<?xml version="1.0" encoding="UTF-8" standalone="no"?>
<!-- Generator: Adobe Illustrator 23.0.6, SVG Export Plug-In . SVG Version: 6.00 Build 0)  -->

<svg
   xmlns:dc="http://purl.org/dc/elements/1.1/"
   xmlns:cc="http://creativecommons.org/ns#"
   xmlns:rdf="http://www.w3.org/1999/02/22-rdf-syntax-ns#"
   xmlns:svg="http://www.w3.org/2000/svg"
   xmlns="http://www.w3.org/2000/svg"
   xmlns:xlink="http://www.w3.org/1999/xlink"
   xmlns:sodipodi="http://sodipodi.sourceforge.net/DTD/sodipodi-0.dtd"
   xmlns:inkscape="http://www.inkscape.org/namespaces/inkscape"
   version="1.1"
   id="Layer_1"
   x="0px"
   y="0px"
   viewBox="0 0 434.8 434.79999"
   xml:space="preserve"
   sodipodi:docname="CD-26_0000015_iconos_vegetacion_canaria_06.svg"
   width="434.79999"
   height="434.79999"
   inkscape:version="0.92.3 (2405546, 2018-03-11)"><metadata
   id="metadata228"><rdf:RDF><cc:Work
       rdf:about=""><dc:format>image/svg+xml</dc:format><dc:type
         rdf:resource="http://purl.org/dc/dcmitype/StillImage" /><dc:title></dc:title></cc:Work></rdf:RDF></metadata><defs
   id="defs226" /><sodipodi:namedview
   pagecolor="#ffffff"
   bordercolor="#666666"
   borderopacity="1"
   objecttolerance="10"
   gridtolerance="10"
   guidetolerance="10"
   inkscape:pageopacity="0"
   inkscape:pageshadow="2"
   inkscape:window-width="1853"
   inkscape:window-height="1025"
   id="namedview224"
   showgrid="false"
   fit-margin-top="1"
   fit-margin-right="1"
   fit-margin-bottom="1"
   fit-margin-left="1"
   inkscape:zoom="0.50546156"
   inkscape:cx="219.64999"
   inkscape:cy="215.05"
   inkscape:window-x="67"
   inkscape:window-y="27"
   inkscape:window-maximized="1"
   inkscape:current-layer="Layer_1" />
<style
   type="text/css"
   id="style2">
	.st0{clip-path:url(#SVGID_2_);}
	.st1{fill:url(#SVGID_3_);}
	.st2{fill:#725D57;}
	.st3{fill:#E8E8E8;}
	.st4{fill:#345B1B;}
	.st5{fill:#548732;}
	.st6{fill:#AC7C75;}
	.st7{fill:#65A844;}
	.st8{fill:#447228;}
	.st9{fill:none;stroke:#AC7C75;stroke-width:6;stroke-miterlimit:10;}
	.st10{fill:none;stroke:#AC7C75;stroke-width:5;stroke-miterlimit:10;}
	.st11{fill:#B79086;}
	.st12{clip-path:url(#SVGID_5_);}
	.st13{fill:url(#SVGID_6_);}
	.st14{fill:#256849;}
	.st15{fill:#466D2F;}
	.st16{fill:#4BAA85;}
	.st17{fill:#58A72A;}
	.st18{fill:#77B255;}
	.st19{fill:url(#SVGID_7_);}
	.st20{fill:url(#SVGID_8_);}
	.st21{fill:url(#SVGID_9_);}
	.st22{fill:url(#SVGID_10_);}
	.st23{fill:url(#SVGID_11_);}
	.st24{fill:url(#SVGID_12_);}
	.st25{clip-path:url(#SVGID_14_);}
	.st26{fill:url(#SVGID_15_);}
	.st27{fill:#EDD058;}
	.st28{fill:#6F6571;}
	.st29{fill:#6CD0F5;}
	.st30{opacity:0.8;fill:#1979BF;enable-background:new    ;}
	.st31{opacity:0.8;}
	.st32{fill:#1979BF;}
	.st33{fill-rule:evenodd;clip-rule:evenodd;fill:#998675;}
	.st34{fill-rule:evenodd;clip-rule:evenodd;fill:#978474;}
	.st35{fill-rule:evenodd;clip-rule:evenodd;fill:#958372;}
	.st36{fill-rule:evenodd;clip-rule:evenodd;fill:#948171;}
	.st37{fill-rule:evenodd;clip-rule:evenodd;fill:#927F6F;}
	.st38{fill-rule:evenodd;clip-rule:evenodd;fill:#907E6E;}
	.st39{fill-rule:evenodd;clip-rule:evenodd;fill:#8E7C6C;}
	.st40{fill-rule:evenodd;clip-rule:evenodd;fill:#8C7A6B;}
	.st41{fill-rule:evenodd;clip-rule:evenodd;fill:#8B796A;}
	.st42{fill-rule:evenodd;clip-rule:evenodd;fill:#897768;}
	.st43{fill-rule:evenodd;clip-rule:evenodd;fill:#877567;}
	.st44{fill-rule:evenodd;clip-rule:evenodd;fill:#857465;}
	.st45{fill-rule:evenodd;clip-rule:evenodd;fill:#837264;}
	.st46{fill-rule:evenodd;clip-rule:evenodd;fill:#817062;}
	.st47{fill-rule:evenodd;clip-rule:evenodd;fill:#806F61;}
	.st48{fill-rule:evenodd;clip-rule:evenodd;fill:#7E6D60;}
	.st49{fill-rule:evenodd;clip-rule:evenodd;fill:#7C6B5E;}
	.st50{fill-rule:evenodd;clip-rule:evenodd;fill:#7A6A5D;}
	.st51{fill-rule:evenodd;clip-rule:evenodd;fill:#78685B;}
	.st52{fill-rule:evenodd;clip-rule:evenodd;fill:#77665A;}
	.st53{fill-rule:evenodd;clip-rule:evenodd;fill:#756558;}
	.st54{fill-rule:evenodd;clip-rule:evenodd;fill:#736357;}
	.st55{fill-rule:evenodd;clip-rule:evenodd;fill:url(#SVGID_16_);}
	.st56{fill-rule:evenodd;clip-rule:evenodd;fill:url(#SVGID_17_);}
	.st57{fill-rule:evenodd;clip-rule:evenodd;fill:url(#SVGID_18_);}
	.st58{fill-rule:evenodd;clip-rule:evenodd;fill:url(#SVGID_19_);}
	.st59{fill-rule:evenodd;clip-rule:evenodd;fill:url(#SVGID_20_);}
	.st60{fill-rule:evenodd;clip-rule:evenodd;fill:url(#SVGID_21_);}
	.st61{fill-rule:evenodd;clip-rule:evenodd;fill:url(#SVGID_22_);}
	.st62{fill-rule:evenodd;clip-rule:evenodd;fill:url(#SVGID_23_);}
	.st63{fill-rule:evenodd;clip-rule:evenodd;fill:url(#SVGID_24_);}
	.st64{fill-rule:evenodd;clip-rule:evenodd;fill:url(#SVGID_25_);}
	.st65{fill-rule:evenodd;clip-rule:evenodd;fill:url(#SVGID_26_);}
	.st66{fill-rule:evenodd;clip-rule:evenodd;fill:url(#SVGID_27_);}
	.st67{opacity:0.52;}
	.st68{fill-rule:evenodd;clip-rule:evenodd;fill:url(#SVGID_28_);}
	.st69{fill-rule:evenodd;clip-rule:evenodd;fill:url(#SVGID_29_);}
	.st70{fill-rule:evenodd;clip-rule:evenodd;fill:url(#SVGID_30_);}
	.st71{fill-rule:evenodd;clip-rule:evenodd;fill:url(#SVGID_31_);}
	.st72{fill-rule:evenodd;clip-rule:evenodd;fill:url(#SVGID_32_);}
	.st73{fill-rule:evenodd;clip-rule:evenodd;fill:url(#SVGID_33_);}
	.st74{fill-rule:evenodd;clip-rule:evenodd;fill:url(#SVGID_34_);}
	.st75{fill-rule:evenodd;clip-rule:evenodd;fill:url(#SVGID_35_);}
	.st76{fill-rule:evenodd;clip-rule:evenodd;fill:url(#SVGID_36_);}
	.st77{fill-rule:evenodd;clip-rule:evenodd;fill:url(#SVGID_37_);}
	.st78{fill-rule:evenodd;clip-rule:evenodd;fill:url(#SVGID_38_);}
	.st79{fill-rule:evenodd;clip-rule:evenodd;fill:url(#SVGID_39_);}
	.st80{fill-rule:evenodd;clip-rule:evenodd;fill:url(#SVGID_40_);}
	.st81{fill-rule:evenodd;clip-rule:evenodd;fill:url(#SVGID_41_);}
	.st82{fill-rule:evenodd;clip-rule:evenodd;fill:url(#SVGID_42_);}
	.st83{fill-rule:evenodd;clip-rule:evenodd;fill:url(#SVGID_43_);}
	.st84{fill-rule:evenodd;clip-rule:evenodd;fill:url(#SVGID_44_);}
	.st85{fill-rule:evenodd;clip-rule:evenodd;fill:url(#SVGID_45_);}
	.st86{fill-rule:evenodd;clip-rule:evenodd;fill:url(#SVGID_46_);}
	.st87{fill-rule:evenodd;clip-rule:evenodd;fill:url(#SVGID_47_);}
	.st88{fill-rule:evenodd;clip-rule:evenodd;fill:url(#SVGID_48_);}
	.st89{fill-rule:evenodd;clip-rule:evenodd;fill:url(#SVGID_49_);}
	.st90{fill-rule:evenodd;clip-rule:evenodd;fill:url(#SVGID_50_);}
	.st91{fill-rule:evenodd;clip-rule:evenodd;fill:url(#SVGID_51_);}
	.st92{fill-rule:evenodd;clip-rule:evenodd;fill:url(#SVGID_52_);}
	.st93{fill-rule:evenodd;clip-rule:evenodd;fill:url(#SVGID_53_);}
	.st94{fill-rule:evenodd;clip-rule:evenodd;fill:url(#SVGID_54_);}
	.st95{fill-rule:evenodd;clip-rule:evenodd;fill:url(#SVGID_55_);}
	.st96{fill-rule:evenodd;clip-rule:evenodd;fill:url(#SVGID_56_);}
	.st97{fill-rule:evenodd;clip-rule:evenodd;fill:url(#SVGID_57_);}
	.st98{fill-rule:evenodd;clip-rule:evenodd;fill:url(#SVGID_58_);}
	.st99{fill-rule:evenodd;clip-rule:evenodd;fill:url(#SVGID_59_);}
	.st100{fill-rule:evenodd;clip-rule:evenodd;fill:url(#SVGID_60_);}
	.st101{fill-rule:evenodd;clip-rule:evenodd;fill:url(#SVGID_61_);}
	.st102{fill-rule:evenodd;clip-rule:evenodd;fill:url(#SVGID_62_);}
	.st103{fill-rule:evenodd;clip-rule:evenodd;fill:url(#SVGID_63_);}
	.st104{fill-rule:evenodd;clip-rule:evenodd;fill:url(#SVGID_64_);}
	.st105{fill-rule:evenodd;clip-rule:evenodd;fill:url(#SVGID_65_);}
	.st106{fill-rule:evenodd;clip-rule:evenodd;fill:url(#SVGID_66_);}
	.st107{fill-rule:evenodd;clip-rule:evenodd;fill:url(#SVGID_67_);}
	.st108{fill-rule:evenodd;clip-rule:evenodd;fill:url(#SVGID_68_);}
	.st109{fill-rule:evenodd;clip-rule:evenodd;fill:url(#SVGID_69_);}
	.st110{fill-rule:evenodd;clip-rule:evenodd;fill:url(#SVGID_70_);}
	.st111{fill-rule:evenodd;clip-rule:evenodd;fill:url(#SVGID_71_);}
	.st112{fill-rule:evenodd;clip-rule:evenodd;fill:url(#SVGID_72_);}
	.st113{fill-rule:evenodd;clip-rule:evenodd;fill:url(#SVGID_73_);}
	.st114{fill-rule:evenodd;clip-rule:evenodd;fill:url(#SVGID_74_);}
	.st115{fill-rule:evenodd;clip-rule:evenodd;fill:url(#SVGID_75_);}
	.st116{fill-rule:evenodd;clip-rule:evenodd;fill:url(#SVGID_76_);}
	.st117{fill-rule:evenodd;clip-rule:evenodd;fill:url(#SVGID_77_);}
	.st118{fill-rule:evenodd;clip-rule:evenodd;fill:url(#SVGID_78_);}
	.st119{fill-rule:evenodd;clip-rule:evenodd;fill:url(#SVGID_79_);}
	.st120{clip-path:url(#SVGID_81_);}
	.st121{fill:url(#SVGID_82_);}
	.st122{clip-path:url(#SVGID_84_);}
	.st123{fill:#A6B0C9;}
	.st124{fill:#586C6A;}
	.st125{fill:#475E5B;}
	.st126{fill:#667D69;}
	.st127{fill:#768C77;}
	.st128{fill:#8770C1;}
	.st129{fill:#9A88D1;}
	.st130{fill:none;stroke:#734DBC;stroke-miterlimit:10;}
	.st131{fill:#DBB013;}
	.st132{fill:#E8DEDD;}
	.st133{clip-path:url(#SVGID_86_);}
	.st134{fill:url(#SVGID_87_);}
	.st135{clip-path:url(#SVGID_89_);}
	.st136{fill:#5C993C;}
	.st137{fill:#88C663;}
	.st138{fill:#406329;}
	.st139{fill:#B29312;}
	.st140{fill:none;stroke:#913A13;stroke-width:2;stroke-miterlimit:10;}
	.st141{fill:#A50A6A;}
	.st142{fill:#C40072;}
	.st143{clip-path:url(#SVGID_91_);}
	.st144{fill:#98D873;}
	.st145{clip-path:url(#SVGID_93_);}
	.st146{fill:url(#SVGID_94_);}
	.st147{fill:#857E87;}
	.st148{fill:#6F6F6F;}
	.st149{opacity:0.8;fill:#5C9340;enable-background:new    ;}
	.st150{fill:#5C9340;}
	.st151{fill:#997E60;}
	.st152{fill:#7CC94F;}
	.st153{clip-path:url(#SVGID_96_);}
	.st154{fill:url(#SVGID_97_);}
	.st155{clip-path:url(#SVGID_99_);fill:url(#SVGID_100_);}
	.st156{clip-path:url(#SVGID_102_);}
	.st157{fill:#C9235A;}
	.st158{fill:#FF507A;}
	.st159{fill:#E53366;}
	.st160{fill:#E5C81F;}
	.st161{clip-path:url(#SVGID_104_);}
	.st162{clip-path:url(#SVGID_106_);}
	.st163{clip-path:url(#SVGID_108_);}
	.st164{clip-path:url(#SVGID_110_);}
	.st165{clip-path:url(#SVGID_112_);}
	.st166{clip-path:url(#SVGID_114_);}
	.st167{clip-path:url(#SVGID_116_);}
	.st168{clip-path:url(#SVGID_118_);}
	.st169{clip-path:url(#SVGID_120_);}
	.st170{clip-path:url(#SVGID_122_);}
	.st171{clip-path:url(#SVGID_124_);}
	.st172{clip-path:url(#SVGID_126_);}
	.st173{clip-path:url(#SVGID_128_);}
	.st174{clip-path:url(#SVGID_130_);}
	.st175{clip-path:url(#SVGID_132_);}
	.st176{clip-path:url(#SVGID_134_);}
	.st177{clip-path:url(#SVGID_136_);}
	.st178{clip-path:url(#SVGID_138_);}
	.st179{clip-path:url(#SVGID_140_);}
	.st180{clip-path:url(#SVGID_142_);}
	.st181{clip-path:url(#SVGID_144_);}
	.st182{clip-path:url(#SVGID_146_);}
	.st183{clip-path:url(#SVGID_148_);}
	.st184{clip-path:url(#SVGID_150_);}
	.st185{clip-path:url(#SVGID_152_);}
	.st186{clip-path:url(#SVGID_154_);}
	.st187{clip-path:url(#SVGID_156_);}
	.st188{clip-path:url(#SVGID_158_);}
	.st189{clip-path:url(#SVGID_160_);}
	.st190{clip-path:url(#SVGID_162_);}
	.st191{clip-path:url(#SVGID_164_);}
	.st192{clip-path:url(#SVGID_166_);}
	.st193{clip-path:url(#SVGID_168_);}
	.st194{clip-path:url(#SVGID_170_);}
	.st195{clip-path:url(#SVGID_172_);}
	.st196{clip-path:url(#SVGID_174_);}
	.st197{clip-path:url(#SVGID_176_);}
	.st198{clip-path:url(#SVGID_178_);}
	.st199{clip-path:url(#SVGID_180_);}
	.st200{clip-path:url(#SVGID_182_);}
	.st201{clip-path:url(#SVGID_184_);}
	.st202{clip-path:url(#SVGID_186_);}
	.st203{fill:#CE57BD;}
	.st204{fill:#E264CA;}
	.st205{fill:#AA3C9B;}
	.st206{clip-path:url(#SVGID_188_);}
	.st207{clip-path:url(#SVGID_190_);}
	.st208{clip-path:url(#SVGID_192_);}
	.st209{clip-path:url(#SVGID_194_);fill:#55912F;}
	.st210{clip-path:url(#SVGID_196_);fill:#55912F;}
	.st211{clip-path:url(#SVGID_198_);fill:#55912F;}
	.st212{clip-path:url(#SVGID_200_);fill:#55912F;}
	.st213{clip-path:url(#SVGID_202_);fill:#55912F;}
	.st214{clip-path:url(#SVGID_204_);fill:#55912F;}
	.st215{clip-path:url(#SVGID_206_);fill:#55912F;}
	.st216{clip-path:url(#SVGID_208_);fill:#55912F;}
	.st217{clip-path:url(#SVGID_210_);fill:#55912F;}
	.st218{clip-path:url(#SVGID_212_);fill:#55912F;}
	.st219{clip-path:url(#SVGID_214_);fill:#6BAA43;}
	.st220{clip-path:url(#SVGID_216_);fill:#6BAA43;}
	.st221{clip-path:url(#SVGID_218_);fill:#55912F;}
	.st222{clip-path:url(#SVGID_220_);fill:#6BAA43;}
	.st223{clip-path:url(#SVGID_222_);fill:#6BAA43;}
	.st224{clip-path:url(#SVGID_224_);fill:#6BAA43;}
	.st225{clip-path:url(#SVGID_226_);fill:#6BAA43;}
	.st226{clip-path:url(#SVGID_228_);fill:#6BAA43;}
	.st227{clip-path:url(#SVGID_230_);fill:#6BAA43;}
	.st228{clip-path:url(#SVGID_232_);fill:#6BAA43;}
	.st229{clip-path:url(#SVGID_234_);fill:#55912F;}
	.st230{clip-path:url(#SVGID_236_);fill:#55912F;}
	.st231{clip-path:url(#SVGID_238_);fill:#55912F;}
	.st232{clip-path:url(#SVGID_240_);fill:#6BAA43;}
	.st233{clip-path:url(#SVGID_242_);fill:#6BAA43;}
	.st234{clip-path:url(#SVGID_244_);fill:#6BAA43;}
	.st235{clip-path:url(#SVGID_246_);fill:#6BAA43;}
	.st236{clip-path:url(#SVGID_248_);fill:#6BAA43;}
	.st237{clip-path:url(#SVGID_250_);fill:#6BAA43;}
	.st238{clip-path:url(#SVGID_252_);fill:#55912F;}
	.st239{clip-path:url(#SVGID_254_);fill:#55912F;}
	.st240{clip-path:url(#SVGID_256_);fill:#55912F;}
	.st241{clip-path:url(#SVGID_258_);fill:#55912F;}
	.st242{clip-path:url(#SVGID_260_);fill:#6BAA43;}
	.st243{clip-path:url(#SVGID_262_);fill:#6BAA43;}
	.st244{clip-path:url(#SVGID_264_);fill:#6BAA43;}
	.st245{clip-path:url(#SVGID_266_);fill:#6BAA43;}
	.st246{clip-path:url(#SVGID_268_);fill:#6BAA43;}
	.st247{clip-path:url(#SVGID_270_);fill:#55912F;}
	.st248{clip-path:url(#SVGID_272_);fill:#55912F;}
	.st249{clip-path:url(#SVGID_274_);fill:#55912F;}
	.st250{clip-path:url(#SVGID_276_);}
	.st251{clip-path:url(#SVGID_278_);}
	.st252{clip-path:url(#SVGID_280_);}
	.st253{clip-path:url(#SVGID_282_);}
	.st254{clip-path:url(#SVGID_284_);}
	.st255{clip-path:url(#SVGID_286_);}
	.st256{clip-path:url(#SVGID_288_);}
	.st257{clip-path:url(#SVGID_290_);}
	.st258{clip-path:url(#SVGID_292_);}
	.st259{clip-path:url(#SVGID_294_);}
	.st260{clip-path:url(#SVGID_296_);}
	.st261{clip-path:url(#SVGID_298_);}
	.st262{clip-path:url(#SVGID_300_);}
	.st263{clip-path:url(#SVGID_302_);}
	.st264{clip-path:url(#SVGID_304_);}
	.st265{clip-path:url(#SVGID_306_);}
	.st266{clip-path:url(#SVGID_308_);}
	.st267{clip-path:url(#SVGID_310_);}
	.st268{clip-path:url(#SVGID_312_);}
	.st269{clip-path:url(#SVGID_314_);}
	.st270{clip-path:url(#SVGID_316_);}
	.st271{clip-path:url(#SVGID_318_);}
	.st272{clip-path:url(#SVGID_320_);}
	.st273{clip-path:url(#SVGID_322_);}
	.st274{clip-path:url(#SVGID_324_);}
	.st275{clip-path:url(#SVGID_326_);}
	.st276{clip-path:url(#SVGID_328_);}
	.st277{clip-path:url(#SVGID_330_);}
	.st278{clip-path:url(#SVGID_332_);}
	.st279{clip-path:url(#SVGID_334_);}
	.st280{clip-path:url(#SVGID_336_);}
	.st281{clip-path:url(#SVGID_338_);}
	.st282{clip-path:url(#SVGID_340_);}
	.st283{clip-path:url(#SVGID_342_);}
	.st284{clip-path:url(#SVGID_344_);}
	.st285{clip-path:url(#SVGID_346_);}
	.st286{clip-path:url(#SVGID_348_);}
	.st287{clip-path:url(#SVGID_350_);}
	.st288{clip-path:url(#SVGID_352_);}
	.st289{clip-path:url(#SVGID_354_);}
	.st290{clip-path:url(#SVGID_356_);}
	.st291{clip-path:url(#SVGID_358_);}
	.st292{clip-path:url(#SVGID_360_);}
	.st293{clip-path:url(#SVGID_362_);fill:#6BAA43;}
	.st294{clip-path:url(#SVGID_364_);fill:#55912F;}
	.st295{clip-path:url(#SVGID_366_);fill:#55912F;}
	.st296{clip-path:url(#SVGID_368_);fill:#55912F;}
	.st297{clip-path:url(#SVGID_370_);}
	.st298{clip-path:url(#SVGID_372_);}
	.st299{clip-path:url(#SVGID_374_);}
	.st300{clip-path:url(#SVGID_376_);fill:#6BAA43;}
	.st301{clip-path:url(#SVGID_378_);}
	.st302{clip-path:url(#SVGID_380_);fill:#55912F;}
	.st303{clip-path:url(#SVGID_382_);}
	.st304{fill:url(#SVGID_383_);}
	.st305{fill:#3E4347;}
	.st306{fill:none;stroke:#E8E8E8;stroke-width:8;stroke-linecap:round;stroke-miterlimit:10;}
	.st307{fill:#345620;}
	.st308{clip-path:url(#SVGID_385_);}
	.st309{fill:url(#SVGID_386_);}
	.st310{clip-path:url(#SVGID_388_);fill:#725D57;}
	.st311{clip-path:url(#SVGID_390_);fill:#CEABA3;}
	.st312{clip-path:url(#SVGID_392_);fill:#CEABA3;}
	.st313{clip-path:url(#SVGID_394_);}
	.st314{fill:#CEABA3;}
	.st315{clip-path:url(#SVGID_396_);}
	.st316{fill:#CCC4B0;}
	.st317{fill:#2D5116;}
	.st318{fill:none;stroke:#CCBAA8;stroke-width:4;stroke-linecap:round;stroke-miterlimit:10;}
	.st319{fill:none;stroke:#CCBAA8;stroke-width:5;stroke-linecap:round;stroke-miterlimit:10;}
	.st320{fill:none;stroke:#CCBAA8;stroke-width:6;stroke-linecap:round;stroke-miterlimit:10;}
	.st321{fill:#BCA78C;}
	.st322{fill:#A08D78;}
</style>
<g
   id="g221"
   transform="translate(-12,-13.7)">
	<g
   id="g27">
		<g
   id="g25">
			<defs
   id="defs5">
				<path
   id="SVGID_80_"
   d="M 229.4,14.7 C 109.9,14.7 13,111.6 13,231.1 c 0,26.3 4.7,51.5 13.3,74.8 v 0 c 30.5,82.7 109.9,141.6 203.1,141.6 93.2,0 172.7,-58.9 203.1,-141.6 v 0 c 8.6,-23.3 13.3,-48.5 13.3,-74.8 0,-119.5 -96.9,-216.4 -216.4,-216.4 z"
   inkscape:connector-curvature="0" />
			</defs>
			<clipPath
   id="SVGID_2_">
				<use
   xlink:href="#SVGID_80_"
   style="overflow:visible"
   id="use7"
   x="0"
   y="0"
   width="100%"
   height="100%" />
			</clipPath>
			<g
   class="st0"
   clip-path="url(#SVGID_2_)"
   id="g23">
				
					<linearGradient
   id="SVGID_3_"
   gradientUnits="userSpaceOnUse"
   x1="231.6275"
   y1="-947.94843"
   x2="231.6275"
   y2="-1402.6143"
   gradientTransform="translate(12,1416.3143)">
					<stop
   offset="0"
   style="stop-color:#DAE5EF"
   id="stop10" />
					<stop
   offset="1"
   style="stop-color:#6DAFDF"
   id="stop12" />
				</linearGradient>
				<rect
   class="st1"
   width="463.29999"
   height="454.70001"
   id="rect15"
   x="0"
   y="0"
   style="fill:url(#SVGID_3_)" />
				<path
   class="st3"
   d="m 405.1,314.3 h -44.6 c -6.2,0 -11.2,-5 -11.2,-11.2 0,-6.2 5,-11.2 11.2,-11.2 h 44.6 c 6.2,0 11.2,5 11.2,11.2 0,6.2 -5,11.2 -11.2,11.2 z"
   id="path17"
   inkscape:connector-curvature="0"
   style="fill:#e8e8e8" />
				<path
   class="st3"
   d="M 312.2,75.5 H 326 c 0,0.3 0,0.6 0,0.9 0,6.2 5,11.2 11.2,11.2 h 67 c 6.2,0 11.2,-5 11.2,-11.2 0,-6.2 -5,-11.2 -11.2,-11.2 H 368 c 0,-0.3 0,-0.6 0,-0.9 0,-6.2 -5,-11.2 -11.2,-11.2 h -44.6 c -6.2,0 -11.2,5 -11.2,11.2 0,6.2 5,11.2 11.2,11.2 z"
   id="path19"
   inkscape:connector-curvature="0"
   style="fill:#e8e8e8" />
				<path
   class="st3"
   d="m 70.2,147.3 h 13.9 c 0,0.3 0,0.6 0,0.9 0,6.2 5,11.2 11.2,11.2 h 14.9 c 6.2,0 11.2,-5 11.2,-11.2 0,-6.2 -5,-11.2 -11.2,-11.2 h -6.4 c 0,-0.3 0,-0.6 0,-0.9 0,-6.2 -5,-11.2 -11.2,-11.2 H 70.2 c -6.2,0 -11.2,5 -11.2,11.2 0,6.2 5,11.2 11.2,11.2 z"
   id="path21"
   inkscape:connector-curvature="0"
   style="fill:#e8e8e8" />
			</g>
		</g>
	</g>
	<g
   id="g219">
		<g
   id="g217">
			<defs
   id="defs30">
				<path
   id="SVGID_83_"
   d="M 229.4,14.7 C 109.9,14.7 13,111.6 13,231.1 c 0,26.3 4.7,51.5 13.3,74.8 v 0 c 30.5,82.7 109.9,141.6 203.1,141.6 93.2,0 172.7,-58.9 203.1,-141.6 v 0 c 8.6,-23.3 13.3,-48.5 13.3,-74.8 0,-119.5 -96.9,-216.4 -216.4,-216.4 z"
   inkscape:connector-curvature="0" />
			</defs>
			<clipPath
   id="SVGID_5_">
				<use
   xlink:href="#SVGID_83_"
   style="overflow:visible"
   id="use32"
   x="0"
   y="0"
   width="100%"
   height="100%" />
			</clipPath>
			<g
   class="st12"
   clip-path="url(#SVGID_5_)"
   id="g215">
				<path
   class="st123"
   d="m 254.3,291.4 c -6.3,-5.1 -22.4,-40 -23.6,-59.3 -1.2,-19.4 -7.2,-43.7 -14.1,-49.2 -9.2,-7.3 -7.4,-19.7 -2.4,-12.3 5,7.4 28.1,16.9 35.1,59.5 7,42.6 22.3,100 22.3,100 z"
   id="path35"
   inkscape:connector-curvature="0"
   style="fill:#a6b0c9" />
				<g
   id="g41">
					<path
   class="st124"
   d="m 302,293.4 c 0.5,-11.2 19.5,-70.9 36.4,-86.5 16.9,-15.6 31.1,-29.3 38,-37.4 0.9,-1 1.7,-1.9 2.5,-2.5 5.4,-4.6 8.2,-0.7 5.2,9.1 -3.5,11.3 4.9,27.1 -29.4,66.5 C 320.3,282 278,342 278,342 Z"
   id="path37"
   inkscape:connector-curvature="0"
   style="fill:#586c6a" />
					<path
   class="st125"
   d="m 375.1,175.1 c 0,0 -11.7,26.4 -36.7,65.3 -25,38.9 -61.6,93.9 -61.6,93.9 0,0 60.2,-71.9 71.9,-85.8 11.7,-13.9 31.5,-35.2 32.3,-49.2 0.7,-13.9 8,-38 2.9,-35.2 -5,2.8 -8.8,11 -8.8,11 z"
   id="path39"
   inkscape:connector-curvature="0"
   style="fill:#475e5b" />
				</g>
				<g
   id="g47">
					<path
   class="st126"
   d="m 288.9,325.6 c 2.2,-11 30.1,-51.7 49.2,-64.6 19.1,-12.9 35.2,-39.6 43.3,-46.6 2.1,-1.8 4.3,-4.2 6.2,-6.4 5.4,-6.2 8.9,-11.7 5.1,-3.9 -5.1,10.6 -4,45.5 -44,79.2 -40,33.7 -91,86.6 -91,86.6 z"
   id="path43"
   inkscape:connector-curvature="0"
   style="fill:#667d69" />
					<path
   class="st127"
   d="m 272,351.6 c 0,0 67.9,-77 78.9,-90.2 11,-13.2 34.5,-55 39.6,-58 5.1,-2.9 5.1,-2.9 5.1,-2.9 0,0 -2.9,5.9 -8.8,25.7 -5.9,19.8 -33,56.5 -52.8,71.2 -19.8,14.7 -62.4,61.6 -69,60.9 -6.6,-0.8 7,-6.7 7,-6.7 z"
   id="path45"
   inkscape:connector-curvature="0"
   style="fill:#768c77" />
				</g>
				<g
   id="g53">
					<path
   class="st126"
   d="m 297.3,397.5 c 2.2,-11 30.1,-51.7 49.2,-64.5 19.1,-12.8 35.2,-39.6 43.3,-46.6 2.1,-1.8 4.3,-4.2 6.2,-6.4 5.4,-6.2 8.9,-11.7 5.1,-3.9 -5.1,10.6 -4,45.5 -44,79.2 -40,33.7 -91,86.5 -91,86.5 z"
   id="path49"
   inkscape:connector-curvature="0"
   style="fill:#667d69" />
					<path
   class="st127"
   d="m 280.4,423.6 c 0,0 67.9,-77 78.9,-90.2 11,-13.2 34.5,-55 39.6,-57.9 5.1,-2.9 5.1,-2.9 5.1,-2.9 0,0 -2.9,5.9 -8.8,25.7 -5.9,19.8 -33,56.5 -52.8,71.1 -19.8,14.7 -62.4,61.6 -69,60.9 -6.6,-0.7 7,-6.7 7,-6.7 z"
   id="path51"
   inkscape:connector-curvature="0"
   style="fill:#768c77" />
				</g>
				<path
   class="st123"
   d="m 252.3,287.3 c -8.1,1 -44.3,-11.7 -59.1,-24.3 -14.8,-12.6 -36.4,-25.1 -45.2,-24 -11.6,1.5 -19.3,-8.3 -10.6,-6.8 8.7,1.5 31.6,-8.5 67.2,16.2 35.5,24.6 87.4,53.5 87.4,53.5 z"
   id="path55"
   inkscape:connector-curvature="0"
   style="fill:#a6b0c9" />
				<g
   id="g61">
					<path
   class="st124"
   d="M 224.5,247.3 C 216.8,239.2 187,184 187.6,161 c 0.6,-23 0.6,-42.7 -0.5,-53.3 -0.1,-1.3 -0.2,-2.5 -0.1,-3.5 0.4,-7.1 5.2,-6.4 10.2,2.6 5.7,10.3 22.9,15.3 27.4,67.4 4.5,52.1 18.2,124.2 18.2,124.2 z"
   id="path57"
   inkscape:connector-curvature="0"
   style="fill:#586c6a" />
					<path
   class="st125"
   d="m 190.3,112.5 c 0,0 10.8,26.8 21.4,71.8 10.6,45 24.7,109.6 24.7,109.6 0,0 -9.9,-93.2 -11.7,-111.3 -1.8,-18.1 -3.4,-47.2 -12.9,-57.4 C 202.3,115 190,93 188.5,98.5 c -1.5,5.5 1.8,14 1.8,14 z"
   id="path59"
   inkscape:connector-curvature="0"
   style="fill:#475e5b" />
				</g>
				<g
   id="g67">
					<path
   class="st124"
   d="m 300.1,276.7 c -6.5,-12.2 -57.9,-66.3 -83.7,-72.3 -25.8,-6 -47.7,-11.6 -59.2,-16 -1.4,-0.6 -2.8,-0.9 -3.9,-1.1 -8,-1.5 -8.9,4.8 -0.5,13.8 9.6,10.3 9.4,33.8 65.9,54.6 56.5,20.8 132.1,59.2 132.1,59.2 z"
   id="path63"
   inkscape:connector-curvature="0"
   style="fill:#586c6a" />
					<path
   class="st125"
   d="m 161.6,193.8 c 0,0 26.2,21.6 72.7,48.2 46.5,26.6 113.7,63.3 113.7,63.3 0,0 -100.5,-39.5 -120,-47.2 -19.5,-7.7 -51.3,-18 -59.5,-33.1 -8.2,-15.1 -28.5,-37.2 -21.8,-37.5 6.6,-0.3 14.9,6.3 14.9,6.3 z"
   id="path65"
   inkscape:connector-curvature="0"
   style="fill:#475e5b" />
				</g>
				<g
   id="g73">
					<path
   class="st126"
   d="m 247.3,261 c -6.4,-9.2 -16.3,-57.6 -12.3,-80.2 4,-22.6 -4,-52.9 -3.4,-63.5 0.2,-2.8 0,-6 -0.3,-8.9 -0.7,-8.2 -2.2,-14.5 0.8,-6.4 4.1,11.1 29.9,34.5 26.4,86.7 -3.5,52.2 -1,125.6 -1,125.6 z"
   id="path69"
   inkscape:connector-curvature="0"
   style="fill:#667d69" />
					<path
   class="st127"
   d="m 254.3,291.2 c 0,0 -8.2,-102.3 -10,-119.4 -1.8,-17.1 -15.6,-63 -14.1,-68.8 1.5,-5.7 1.5,-5.7 1.5,-5.7 0,0 2.2,6.2 12.3,24.2 10.1,18 17.7,63 14.5,87.4 -3.2,24.4 1,87.7 -4.1,91.9 -5.3,4.2 -0.1,-9.6 -0.1,-9.6 z"
   id="path71"
   inkscape:connector-curvature="0"
   style="fill:#768c77" />
				</g>
				<path
   class="st123"
   d="m 258,279.3 c 6.6,-4.8 44.4,-11 63.4,-7.1 19,3.9 44,4.6 51.2,-0.6 9.5,-6.9 21,-2 12.5,0.9 -8.5,2.9 -23.7,22.6 -66.7,18.1 -43,-4.5 -102.3,-4.9 -102.3,-4.9 z"
   id="path75"
   inkscape:connector-curvature="0"
   style="fill:#a6b0c9" />
				<path
   class="st123"
   d="M 164.2,361.4 C 156.8,358.1 132.2,328.6 126,310.3 119.8,292 107.6,270 99.6,266.5 88.8,261.8 87.3,249.4 94,255.2 c 6.7,5.8 31.5,9 49.3,48.4 17.8,39.4 47.5,90.7 47.5,90.7 z"
   id="path77"
   inkscape:connector-curvature="0"
   style="fill:#a6b0c9" />
				<path
   class="st123"
   d="m 186.9,314 c -7.2,3.8 -45.6,4.7 -63.8,-1.9 -18.3,-6.6 -43,-10.7 -50.7,-6.5 -10.4,5.5 -21,-1 -12.3,-2.7 8.7,-1.7 26.6,-19.1 68.5,-8.6 41.9,10.5 100.6,19.2 100.6,19.2 z"
   id="path79"
   inkscape:connector-curvature="0"
   style="fill:#a6b0c9" />
				<path
   class="st123"
   d="m 177.8,314.6 c 6,5.5 19.5,41.4 19.4,60.8 -0.1,19.4 4.2,44.1 10.6,50 8.6,8 6,20.2 1.6,12.5 -4.4,-7.7 -26.8,-18.8 -30.8,-61.8 -4,-43 -15.2,-101.3 -15.2,-101.3 z"
   id="path81"
   inkscape:connector-curvature="0"
   style="fill:#a6b0c9" />
				<g
   id="g87">
					<path
   class="st124"
   d="m 168.9,348.3 c 10.7,3.4 63.3,37.5 73.8,57.9 10.5,20.4 20,37.7 26,46.6 0.8,1.1 1.4,2.1 1.8,3.1 3,6.4 -1.5,8.1 -10.2,2.6 -10,-6.3 -27.4,-2.4 -56.4,-46 -29,-43.6 -75.6,-100.2 -75.6,-100.2 z"
   id="path83"
   inkscape:connector-curvature="0"
   style="fill:#586c6a" />
					<path
   class="st125"
   d="m 263.6,450 c 0,0 -22.4,-18.3 -53.3,-52.6 -30.9,-34.3 -74.3,-84.2 -74.3,-84.2 0,0 53.4,77 63.8,92 10.3,15 25.6,39.7 38.9,44.1 13.3,4.4 34.6,17.7 33.2,12.1 -1.3,-5.6 -8.3,-11.4 -8.3,-11.4 z"
   id="path85"
   inkscape:connector-curvature="0"
   style="fill:#475e5b" />
				</g>
				<g
   id="g93">
					<path
   class="st124"
   d="m 194.2,340 c 7.7,2.7 45.7,29.9 53.3,46.2 7.6,16.3 14.5,30.1 18.8,37.1 0.5,0.9 1,1.7 1.3,2.4 2.2,5.1 -1.1,6.5 -7.4,2.1 -7.2,-5 -19.8,-1.9 -40.7,-36.6 -20.9,-34.7 -54.6,-79.9 -54.6,-79.9 z"
   id="path89"
   inkscape:connector-curvature="0"
   style="fill:#586c6a" />
					<path
   class="st125"
   d="m 262.6,421.1 c 0,0 -16.2,-14.6 -38.5,-42 -22.3,-27.4 -53.6,-67.2 -53.6,-67.2 0,0 38.6,61.4 46.1,73.4 7.5,12 18.5,31.7 28.1,35.2 9.6,3.5 25,14.1 24,9.7 -1.1,-4.5 -6.1,-9.1 -6.1,-9.1 z"
   id="path91"
   inkscape:connector-curvature="0"
   style="fill:#475e5b" />
				</g>
				<g
   id="g99">
					<path
   class="st124"
   d="m 173.5,307.7 c -6.7,-4.7 -35.8,-41.2 -38.8,-58.9 -2.9,-17.7 -5.7,-32.9 -8,-40.8 -0.3,-1 -0.5,-1.9 -0.6,-2.7 -0.7,-5.5 2.8,-5.9 7.7,0 5.6,6.8 18.5,7.2 29.2,46.3 10.7,39.1 30.8,91.7 30.8,91.7 z"
   id="path95"
   inkscape:connector-curvature="0"
   style="fill:#586c6a" />
					<path
   class="st125"
   d="m 129.7,211 c 0,0 11.6,18.4 25.6,50.8 14,32.4 33.4,79.2 33.4,79.2 0,0 -20.4,-69.6 -24.4,-83.1 -3.9,-13.5 -9.2,-35.5 -17.5,-41.5 -8.3,-6 -20.2,-20.4 -20.4,-15.8 -0.2,4.6 3.3,10.4 3.3,10.4 z"
   id="path97"
   inkscape:connector-curvature="0"
   style="fill:#475e5b" />
				</g>
				<g
   id="g105">
					<path
   class="st126"
   d="m 189.6,279.6 c 10,5 41.9,42.7 49.3,64.5 7.3,21.8 28.9,44.4 33.5,54.1 1.2,2.5 2.9,5.2 4.5,7.7 4.6,6.8 8.9,11.7 2.4,6 C 270.4,404.1 236.5,396 214.5,348.5 192.5,301 155,237.8 155,237.8 Z"
   id="path101"
   inkscape:connector-curvature="0"
   style="fill:#667d69" />
					<path
   class="st127"
   d="m 168.9,256.4 c 0,0 56.3,85.8 66.2,99.9 9.9,14.1 44,47.8 45.4,53.5 1.4,5.7 1.5,5.7 1.5,5.7 0,0 -4.9,-4.4 -22.4,-15.3 -17.5,-10.9 -45.8,-46.8 -54.7,-69.7 -8.9,-23 -43,-76.4 -40.5,-82.6 2.4,-6.1 4.5,8.5 4.5,8.5 z"
   id="path103"
   inkscape:connector-curvature="0"
   style="fill:#768c77" />
				</g>
				<g
   id="g111">
					<path
   class="st124"
   d="m 301.7,316 c 3.6,10.6 7.9,73.1 -2.1,93.8 -10,20.7 -18.2,38.7 -21.7,48.8 -0.4,1.3 -0.9,2.4 -1.4,3.3 -3.3,6.2 -7.4,3.7 -8.2,-6.6 -0.9,-11.8 -14.5,-23.4 3,-72.7 C 288.8,333.3 306.2,262 306.2,262 Z"
   id="path107"
   inkscape:connector-curvature="0"
   style="fill:#586c6a" />
					<path
   class="st125"
   d="m 277,452.9 c 0,0 1.2,-28.9 10.2,-74.2 9,-45.3 22.9,-110 22.9,-110 0,0 -29.6,88.9 -35.4,106.2 -5.8,17.3 -16.4,44.3 -12,57.6 4.4,13.2 6.5,38.3 10.2,33.8 3.6,-4.4 4.1,-13.4 4.1,-13.4 z"
   id="path109"
   inkscape:connector-curvature="0"
   style="fill:#475e5b" />
				</g>
				<g
   id="g117">
					<path
   class="st126"
   d="m 245,293.9 c 6.7,9 18.4,56.9 15.2,79.7 -3.2,22.8 6,52.7 5.8,63.3 -0.1,2.8 0.2,6 0.6,8.9 1,8.1 2.7,14.4 -0.6,6.4 -4.5,-10.9 -31.2,-33.4 -29.6,-85.7 C 238,314.2 232.7,241 232.7,241 Z"
   id="path113"
   inkscape:connector-curvature="0"
   style="fill:#667d69" />
					<path
   class="st127"
   d="m 236.9,263.9 c 0,0 12,102 14.5,119 2.5,17 17.9,62.4 16.7,68.2 -1.2,5.8 -1.2,5.8 -1.2,5.8 0,0 -2.4,-6.1 -13.2,-23.7 -10.8,-17.6 -20,-62.3 -17.7,-86.8 2.3,-24.5 -4.2,-87.6 0.7,-92 4.9,-4.4 0.2,9.5 0.2,9.5 z"
   id="path115"
   inkscape:connector-curvature="0"
   style="fill:#768c77" />
				</g>
				<g
   id="g123">
					<path
   class="st126"
   d="m 285.3,322.6 c 1.8,6.7 -4.2,37.9 -12.5,51.2 -8.4,13.3 -10.9,33.1 -14,39.6 -0.8,1.7 -1.5,3.7 -2.1,5.5 -1.6,5.1 -2.3,9.3 -2.1,3.8 0.2,-7.4 -10.5,-25.8 5.1,-57.4 15.6,-31.6 32.6,-77.1 32.6,-77.1 z"
   id="path119"
   inkscape:connector-curvature="0"
   style="fill:#667d69" />
					<path
   class="st127"
   d="m 288.6,302.9 c 0,0 -20.8,64.2 -24,75 -3.2,10.8 -6,41.2 -8.4,44.5 -2.4,3.3 -2.4,3.3 -2.4,3.3 0,0 0.2,-4.1 -1.8,-16.8 -2,-12.6 4.7,-41.5 13,-56 8.3,-14.5 21.7,-54.1 26.1,-55.9 4.3,-1.8 -2.5,5.9 -2.5,5.9 z"
   id="path121"
   inkscape:connector-curvature="0"
   style="fill:#768c77" />
				</g>
				<g
   id="g129">
					<path
   class="st126"
   d="m 171.4,336.3 c 1.8,6.7 -4.2,37.9 -12.5,51.2 -8.4,13.3 -10.9,33.1 -14,39.6 -0.8,1.7 -1.5,3.7 -2.1,5.5 -1.6,5.1 -2.3,9.3 -2.1,3.8 0.2,-7.4 -10.5,-25.8 5.1,-57.4 15.6,-31.6 32.6,-77.1 32.6,-77.1 z"
   id="path125"
   inkscape:connector-curvature="0"
   style="fill:#667d69" />
					<path
   class="st127"
   d="m 174.7,316.6 c 0,0 -20.8,64.2 -24,75 -3.2,10.8 -6,41.2 -8.4,44.5 -2.4,3.3 -2.4,3.3 -2.4,3.3 0,0 0.2,-4.1 -1.8,-16.8 -2,-12.6 4.7,-41.5 13,-56 8.3,-14.5 21.7,-54.1 26.1,-55.9 4.3,-1.8 -2.5,5.9 -2.5,5.9 z"
   id="path127"
   inkscape:connector-curvature="0"
   style="fill:#768c77" />
				</g>
				<g
   id="g171">
					<path
   class="st128"
   d="m 269.6,269.5 c 0,0 30.4,17.5 27.6,29.8 -2.8,12.3 -1.8,18.6 -11,23.3 -9.2,4.6 -26,12.9 -36.1,11.5 -10.1,-1.3 -16.9,-17.6 -14.6,-22.5 2.3,-4.9 12.5,-31.9 17,-36.5 4.4,-4.6 17.1,-5.6 17.1,-5.6 z"
   id="path131"
   inkscape:connector-curvature="0"
   style="fill:#8770c1" />
					<path
   class="st128"
   d="m 274.8,215.3 c 0,0 1.4,-25.2 -23.8,-21.8 -25.2,3.4 -29.8,13.3 -32.1,17.4 -2.3,4.1 -12.4,15.1 3.4,39.5 15.8,24.4 36.9,20.8 38.2,21 1.3,0.2 13.5,-5.7 14.3,-12.3 0.8,-6.8 0,-43.8 0,-43.8 z"
   id="path133"
   inkscape:connector-curvature="0"
   style="fill:#8770c1" />
					<path
   class="st129"
   d="m 266.1,263.8 c 0,0 -46.1,-1.8 -54.3,-6.3 -8.2,-4.5 -19.1,-9.5 -23.9,-5.9 -4.8,3.6 -13.5,2 -12.9,9 0.5,6.9 6.1,26.1 10.6,28.2 0,0 -0.7,7.8 3.1,13 3.8,5.2 4.3,9.3 13.2,6.8 8.9,-2.5 17.3,-5.2 20,-6.4 2.7,-1.2 28.9,-11.7 33.8,-15.3 4.8,-3.6 8.5,-13.9 9.5,-16.3 0.7,-2.3 0.9,-6.8 0.9,-6.8 z"
   id="path135"
   inkscape:connector-curvature="0"
   style="fill:#9a88d1" />
					<path
   class="st129"
   d="m 269.5,264.4 c -0.9,-1.2 -7.3,-38.3 2.8,-46.5 10.1,-8.2 20.7,-21.8 34.6,-27.6 13.9,-5.8 26.8,-7.2 32.4,-5.2 5.6,2 5.3,8.9 3.1,17 -2.2,8.1 -16.3,46.6 -27.2,51.1 -10.7,4.5 -45.7,11.2 -45.7,11.2 z"
   id="path137"
   inkscape:connector-curvature="0"
   style="fill:#9a88d1" />
					<g
   id="g145">
						<path
   class="st130"
   d="m 258.2,277.3 c 0,0 -14.5,-4.8 -30.2,-2 -15.7,2.8 -39.1,2.6 -39.1,2.6"
   id="path139"
   inkscape:connector-curvature="0"
   style="fill:none;stroke:#734dbc;stroke-miterlimit:10" />
						<path
   class="st130"
   d="m 255.6,274.6 c 0,0 -10.2,-5.5 -23.7,-6.1 -13.5,-0.6 -32.3,-4.5 -32.3,-4.5"
   id="path141"
   inkscape:connector-curvature="0"
   style="fill:none;stroke:#734dbc;stroke-miterlimit:10" />
						<path
   class="st130"
   d="m 253.6,275.2 c 0,0 -8.3,5.6 -21.1,8.7 -12.8,3.1 -29.8,9.4 -29.8,9.4"
   id="path143"
   inkscape:connector-curvature="0"
   style="fill:none;stroke:#734dbc;stroke-miterlimit:10" />
					</g>
					<g
   id="g153">
						<path
   class="st130"
   d="m 263.2,267.9 c 0,0 -0.8,-11.6 -7.3,-21.8 -6.5,-10.2 -13.1,-26.7 -13.1,-26.7"
   id="path147"
   inkscape:connector-curvature="0"
   style="fill:none;stroke:#734dbc;stroke-miterlimit:10" />
						<path
   class="st130"
   d="m 264.4,265.3 c 0,0 0.9,-8.7 -2.5,-18.4 -3.4,-9.7 -6.1,-23.9 -6.1,-23.9"
   id="path149"
   inkscape:connector-curvature="0"
   style="fill:none;stroke:#734dbc;stroke-miterlimit:10" />
						<path
   class="st130"
   d="m 263.4,264 c 0,0 -6.3,-4.2 -12.2,-12.3 -5.9,-8.1 -15.2,-18.2 -15.2,-18.2"
   id="path151"
   inkscape:connector-curvature="0"
   style="fill:none;stroke:#734dbc;stroke-miterlimit:10" />
					</g>
					<path
   class="st128"
   d="m 275.5,257.6 c 0,0 26.8,-21.1 39.9,-14.1 13.1,7 40.3,22.1 38.5,29.5 -1.9,7.4 -18.3,47.9 -35.4,42.7 -17.1,-5.2 -25.2,-6 -30.9,-17.3 C 281.9,287.1 269.9,266 269.9,266 Z"
   id="path155"
   inkscape:connector-curvature="0"
   style="fill:#8770c1" />
					<g
   id="g163">
						<path
   class="st130"
   d="m 271.3,266.7 c 0,0 16.4,8.7 35.8,8.6 19.4,-0.2 47.3,4.9 47.3,4.9"
   id="path157"
   inkscape:connector-curvature="0"
   style="fill:none;stroke:#734dbc;stroke-miterlimit:10" />
						<path
   class="st130"
   d="m 273.9,270.6 c 0,0 11,8.6 27.1,12.1 16.1,3.5 37.7,11.9 37.7,11.9"
   id="path159"
   inkscape:connector-curvature="0"
   style="fill:none;stroke:#734dbc;stroke-miterlimit:10" />
						<path
   class="st130"
   d="m 276.5,270.3 c 0,0 11,-5 27,-6.1 16,-1.2 37.6,-5.2 37.6,-5.2"
   id="path161"
   inkscape:connector-curvature="0"
   style="fill:none;stroke:#734dbc;stroke-miterlimit:10" />
					</g>
					<g
   id="g169">
						<path
   class="st131"
   d="m 269.3,261.2 c 0,0 1.6,-4.7 -11.7,2.5 -13.3,7.2 -12.9,10.1 -7.7,12 5.2,1.9 2.8,7.6 11.8,2.5 9,-5.1 15.1,-11.4 14,-13.2 -1.2,-1.9 -6.4,-3.8 -6.4,-3.8 z"
   id="path165"
   inkscape:connector-curvature="0"
   style="fill:#dbb013" />
						<path
   class="st132"
   d="m 274.8,261 c 0,0 -9.4,-1.6 -14.2,0.3 -4.8,1.9 -2,4.8 1.9,5.6 3.9,0.8 -0.4,5.7 -0.8,8.7 -0.4,2.9 1.4,6.2 5.1,1.8 3.7,-4.4 11.9,-17.3 10.4,-17.9 -1.3,-0.6 -2.4,1.5 -2.4,1.5 z"
   id="path167"
   inkscape:connector-curvature="0"
   style="fill:#e8dedd" />
					</g>
				</g>
				<g
   id="g213">
					<path
   class="st128"
   d="m 148.9,337.7 c 0,0 -6.2,16.1 -13.1,16.6 -6.9,0.5 -10.2,1.9 -13.6,-1.5 -3.5,-3.4 -9.7,-9.8 -10,-14.5 -0.4,-4.7 7.6,-10.1 10.5,-9.8 2.9,0.3 18.4,1 21.4,2.3 3,1.4 4.8,6.9 4.8,6.9 z"
   id="path173"
   inkscape:connector-curvature="0"
   style="fill:#8770c1" />
					<path
   class="st128"
   d="m 178.6,332.2 c 0,0 13.7,-3 9.2,-13.8 -4.5,-10.8 -10.3,-11.4 -12.7,-11.8 -2.5,-0.4 -9.4,-3.3 -20.8,7.2 -11.4,10.5 -7.2,19.5 -7.2,20.1 0,0.6 4.5,5.2 8.1,4.6 3.6,-0.6 23.4,-6.3 23.4,-6.3 z"
   id="path175"
   inkscape:connector-curvature="0"
   style="fill:#8770c1" />
					<path
   class="st129"
   d="m 151.6,335.3 c 0,0 -3.9,-20.8 -2.4,-25.2 1.5,-4.3 3.1,-9.9 0.6,-11.5 -2.5,-1.6 -2.5,-5.7 -6.2,-4.5 -3.7,1.2 -13.3,6.5 -14,8.8 0,0 -4.3,0.8 -6.7,3.2 -2.4,2.4 -4.6,3.3 -2.3,6.9 2.3,3.6 4.7,7 5.5,8 0.9,1 9.3,11.2 11.8,12.9 2.5,1.7 8.4,1.8 9.8,1.9 1.5,0.1 3.9,-0.5 3.9,-0.5 z"
   id="path177"
   inkscape:connector-curvature="0"
   style="fill:#9a88d1" />
					<path
   class="st129"
   d="m 151.6,336.9 c 0.6,-0.6 19.8,-8.8 25.3,-5.5 5.5,3.3 13.9,6.1 18.5,11.5 4.6,5.4 6.7,10.9 6.2,13.7 -0.5,2.8 -4.2,3.7 -8.8,3.8 -4.6,0.1 -26.7,-0.6 -30.3,-4.7 -3.6,-4.2 -10.9,-18.8 -10.9,-18.8 z"
   id="path179"
   inkscape:connector-curvature="0"
   style="fill:#9a88d1" />
					<g
   id="g187">
						<path
   class="st130"
   d="m 143.5,333.7 c 0,0 1.1,-7.2 -2.1,-13.8 -3.2,-6.6 -5.5,-17.1 -5.5,-17.1"
   id="path181"
   inkscape:connector-curvature="0"
   style="fill:none;stroke:#734dbc;stroke-miterlimit:10" />
						<path
   class="st130"
   d="m 144.7,332.2 c 0,0 1.9,-5.3 0.8,-11.5 -1.1,-6.1 -1,-15.1 -1,-15.1"
   id="path183"
   inkscape:connector-curvature="0"
   style="fill:none;stroke:#734dbc;stroke-miterlimit:10" />
						<path
   class="st130"
   d="m 144.2,331.4 c 0,0 -3.9,-2.9 -6.9,-8.2 -3,-5.3 -8.2,-12 -8.2,-12"
   id="path185"
   inkscape:connector-curvature="0"
   style="fill:none;stroke:#734dbc;stroke-miterlimit:10" />
					</g>
					<g
   id="g195">
						<path
   class="st130"
   d="m 149.1,334.6 c 0,0 6.1,-2 10.9,-6.4 4.8,-4.4 12.9,-9.7 12.9,-9.7"
   id="path189"
   inkscape:connector-curvature="0"
   style="fill:none;stroke:#734dbc;stroke-miterlimit:10" />
						<path
   class="st130"
   d="m 150.6,334.7 c 0,0 4.8,-0.8 9.6,-3.8 4.8,-3 12.2,-6.2 12.2,-6.2"
   id="path191"
   inkscape:connector-curvature="0"
   style="fill:none;stroke:#734dbc;stroke-miterlimit:10" />
						<path
   class="st130"
   d="m 151.2,334.1 c 0,0 1.6,-3.4 5.3,-7.2 3.7,-3.8 8.1,-9.4 8.1,-9.4"
   id="path193"
   inkscape:connector-curvature="0"
   style="fill:none;stroke:#734dbc;stroke-miterlimit:10" />
					</g>
					<path
   class="st128"
   d="m 156.2,339.1 c 0,0 15.5,11 13.5,18.5 -2,7.5 -12,27.4 -16.3,27.3 -4.3,-0.1 -23.2,-7.3 -22.8,-16.6 0.3,-9.4 -0.4,-13.6 5,-17.9 5.4,-4.3 15.2,-13 15.2,-13 z"
   id="path197"
   inkscape:connector-curvature="0"
   style="fill:#8770c1" />
					<g
   id="g205">
						<path
   class="st130"
   d="m 150.6,338.1 c 0,0 -2.9,8.6 -0.8,17.2 2.2,8.6 2.4,21.8 2.4,21.8"
   id="path199"
   inkscape:connector-curvature="0"
   style="fill:none;stroke:#734dbc;stroke-miterlimit:10" />
						<path
   class="st130"
   d="m 148.8,339.8 c 0,0 -3.5,6.2 -3.6,13.9 -0.2,7.7 -2.4,18.6 -2.4,18.6"
   id="path201"
   inkscape:connector-curvature="0"
   style="fill:none;stroke:#734dbc;stroke-miterlimit:10" />
						<path
   class="st130"
   d="m 149.3,340.9 c 0,0 3.8,4.2 6.2,11.2 2.3,7 6.8,16 6.8,16"
   id="path203"
   inkscape:connector-curvature="0"
   style="fill:none;stroke:#734dbc;stroke-miterlimit:10" />
					</g>
					<g
   id="g211">
						<path
   class="st131"
   d="m 153.4,336.4 c 0,0 2.7,0 -2.6,-4.8 -5.3,-4.9 -6.8,-4.3 -7.2,-1.7 -0.5,2.6 -3.8,2.3 -0.1,5.6 3.7,3.3 7.7,5.1 8.6,4.3 0.8,-0.9 1.3,-3.4 1.3,-3.4 z"
   id="path207"
   inkscape:connector-curvature="0"
   style="fill:#dbb013" />
						<path
   class="st132"
   d="m 154,338.8 c 0,0 -0.1,-4.4 -1.7,-6.3 -1.6,-1.9 -2.8,-0.2 -2.8,1.7 0,1.8 -3.1,0.7 -4.7,0.9 -1.6,0.2 -3.2,1.5 -0.4,2.6 2.7,1 10.5,2.8 10.7,2.1 0.2,-0.8 -1.1,-1 -1.1,-1 z"
   id="path209"
   inkscape:connector-curvature="0"
   style="fill:#e8dedd" />
					</g>
				</g>
			</g>
		</g>
	</g>
</g>
</svg>